<?xml version="1.0" standalone="no"?>
<!-- Generator: Gravit.io -->
<svg xmlns="http://www.w3.org/2000/svg" xmlns:xlink="http://www.w3.org/1999/xlink" style="isolation:isolate" viewBox="0 0 636 833.5" width="636" height="833.5"
><defs><clipPath id="_clipPath_ufUKWNh03Q0ow8cg9bS2G9dNbT4C2wP3"><rect width="636" height="833.5"/></clipPath></defs><g clip-path="url(#_clipPath_ufUKWNh03Q0ow8cg9bS2G9dNbT4C2wP3)">
<path d="M397.213 454.436 370.369 459.178 349.751 462.766 490.363 410.974 515.641 412.541 427.603 455.509 397.213 454.436ZM316.969 476.539 352.431 470.271 372.719 503.96 353.875 521.609 316.969 476.539ZM378.698 500.29 359.318 468.127 386.574 463.343 417.047 464.415 378.698 500.29ZM382.533 504.249 421.995 467.302 426.737 490.27 385.75 509.609 382.533 504.249ZM480.261 408.047 347.978 456.787 441.17 405.614 480.261 408.047ZM387.275 514.186 427.315 495.259 429.005 503.383 394.285 525.815 387.275 514.186ZM434.242 500.661 432.51 492.125 507.765 456.622 436.428 500.661 434.242 500.661ZM432.675 463.632 507.229 451.509 437.005 484.662 432.675 463.632ZM448.18 498.105 533.949 445.86 537.33 464.993 474.075 498.105 448.18 498.105ZM199.284 354.152 174.707 376.997 96.196 357.039 40.734 311.35 72.939 251.147 54.878 197.376 35.951 239.023 16.117 272.671-87.961 249.291-56.581 302.526.117 329.246 24.322 333.205 68.939 405.119 186.872 484.456 269.878 506.64 246.704 523.835 193.016 577.482 172.357 616.738 182.913 633.81 220.932 613.893 257.054 581.111 283.733 559.916 308.516 549.071 354.658 528.907 390.739 531.299 395.852 588.863 399.233 635.624 423.892 610.141 438.448 564.576 438.448 521.98 545.041 503.218 620.213 452.251 707.673 379.306 723.961 334.483 592.008 317.577 442.943 334.318 299.197 386.522 199.284 354.152ZM434.696 458.395 537.495 408.253 534.403 440.169 434.696 458.395ZM430.036 403.593 314.33 467.096 282.909 433.943 344.638 398.274 430.036 403.593ZM332.803 395.759 274.291 429.53 234.457 387.512 296.723 393.491 332.803 395.759ZM363.07 521.32 377.255 508.042 380.348 513.197 363.07 521.32ZM362.41 525.773 381.544 516.702 388.059 527.464 362.41 525.773ZM313.217 481.858 349.009 525.609 311.031 542.185 313.217 481.858ZM403.11 525.444 431.273 508.084 433.582 519.135 403.11 525.444ZM398.656 531.423 433.789 524.165 433.789 558.927 398.656 531.423ZM482.529 499.259 536.258 471.178 540.011 499.259 482.529 499.259ZM271.693 439.014 302.289 471.26 205.304 476.786 271.693 439.014ZM266.497 433.984 196.603 473.693 193.428 473.446 225.963 391.223 266.497 433.984ZM218.169 389.079 185.264 472.745 131.823 400.295 218.169 389.079ZM203.82 383.553 126.215 393.614 103.742 363.142 171.532 380.378 203.82 383.553ZM37.353 308.422 27.456 323.185 20.653 276.589 64.857 257.002 37.353 308.422ZM95.701 363.966 118.298 394.604 75.207 400.212 95.701 363.966ZM14.426 278.939 21.23 325.164-23.387 292.712 14.426 278.939ZM90.876 358.853 70.052 395.717 44.651 320.834 90.876 358.853ZM39.085 321.205 59.785 382.275 30.219 334.442 39.085 321.205ZM-28.995 295.062 15.086 327.143-1.12 324.504-48.417 302.113-28.995 295.062ZM301.382 476.827 283.197 494.105 271.817 502.517 203.119 484.208 301.382 476.827ZM307.609 480.745 305.464 539.835 278.043 506.558 288.847 498.558 307.609 480.745ZM273.713 510.681 302.454 545.566 282.661 554.267 253.096 525.938 273.713 510.681ZM249.22 530.227 277.095 556.906 237.88 565.689 249.22 530.227ZM229.674 573.194 218.912 606.883 199.077 580.08 229.674 573.194ZM437.17 502.97 465.004 502.97 437.706 517.197 435.067 504.249 437.17 502.97ZM541.701 435.138 544.423 406.975 641.573 381.244 541.701 435.138ZM538.815 403.181 512.177 401.532 563.721 383.471 538.815 403.181ZM574.277 378.728 669.531 343.637 589.905 388.749 574.277 378.728ZM542.65 440.458 647.47 383.883 607.595 427.51 545.33 460.292 542.65 440.458ZM622.564 420.129 662.191 376.79 696.787 381.038 622.564 420.129ZM704.251 375.636 669.531 371.306 716.415 341.947 704.251 375.636ZM502.404 399.594 457.004 396.748 533.743 354.07 560.711 377.244 502.404 399.594ZM440.18 395.841 355.772 390.604 438.613 342.483 440.18 395.841ZM448.386 391.511 446.901 339.101 500.466 333.04 448.386 391.511ZM218.829 380.625 180.893 376.997 198.789 359.513 218.829 380.625ZM54.177 209.458 67.455 248.755 23.704 268.094 39.827 240.755 54.177 209.458ZM123.246 401.325 174.872 471.302 79.454 407.016 123.246 401.325ZM285.177 386.439 228.973 381.038 211.448 362.523 285.177 386.439ZM346.122 388.707 311.897 386.563 405.13 352.668 401.708 356.42 346.122 388.707ZM6.839 274.733-29.819 288.093-72.787 256.837 6.839 274.733ZM-35.551 290.196-55.262 297.371-76.993 260.053-35.551 290.196ZM235.818 571.792 273.136 563.462 253.838 578.761 225.344 604.657 235.818 571.792ZM242.375 533.608 231.612 567.132 202.129 573.73 242.375 533.608ZM194.748 583.379 214.664 610.347 178.542 612.862 194.748 583.379ZM177.965 617.646 210.046 615.419 184.769 628.655 177.965 617.646ZM402.326 624.614 399.77 589.028 396.017 546.638 419.026 607.625 402.326 624.614ZM421.789 601.069 397.996 537.979 433.211 565.442 421.789 601.069ZM473.086 504.249 520.589 504.249 450.077 516.331 473.086 504.249ZM612.75 431.056 685.86 392.542 618.399 448.581 561.247 487.342 612.75 431.056ZM543.392 467.426 599.389 437.901 547.103 495.094 543.392 467.426ZM661.613 370.399 609.08 383.099 691.715 336.339 711.92 338.895 661.613 370.399ZM568.587 373.78 541.454 350.524 591.019 323.308 626.234 327.803 568.587 373.78ZM581.741 371.1 635.47 328.215 681.984 334.153 581.741 371.1ZM461.045 387.099 506.445 336.091 524.96 351.967 461.045 387.099ZM576.174 323.927 536.176 345.905 518.238 330.483 576.174 323.927ZM550.732 400.459 570.484 384.625 580.999 392.419 550.732 400.459Z" 
fill-rule="evenodd" fill="none" vector-effect="non-scaling-stroke" stroke-width="1" stroke="rgb(0,0,0)" stroke-linejoin="miter" stroke-linecap="square" stroke-miterlimit="3"/>
</g></svg>